<?xml version="1.0" encoding="UTF-8" standalone="no"?>
<svg
   width="1700.76pt"
   height="850.32pt"
   viewBox="0 0 1700.76 850.32"
   version="1.1"
   id="svg13"
   sodipodi:docname="LEWA Logo_transparent auf schwarz.svg"
   inkscape:version="1.4.2 (f4327f4, 2025-05-13)"
   xmlns:inkscape="http://www.inkscape.org/namespaces/inkscape"
   xmlns:sodipodi="http://sodipodi.sourceforge.net/DTD/sodipodi-0.dtd"
   xmlns="http://www.w3.org/2000/svg"
   xmlns:svg="http://www.w3.org/2000/svg">
  <defs
     id="defs13" />
  <sodipodi:namedview
     id="namedview13"
     pagecolor="#ffffff"
     bordercolor="#000000"
     borderopacity="0.25"
     inkscape:showpageshadow="2"
     inkscape:pageopacity="0.0"
     inkscape:pagecheckerboard="0"
     inkscape:deskcolor="#d1d1d1"
     inkscape:document-units="pt"
     inkscape:zoom="0.75335584"
     inkscape:cx="1249.0777"
     inkscape:cy="726.7482"
     inkscape:window-width="2560"
     inkscape:window-height="1417"
     inkscape:window-x="-8"
     inkscape:window-y="-8"
     inkscape:window-maximized="1"
     inkscape:current-layer="svg13" />
  <path
     id="path2"
     style="baseline-shift:baseline;display:inline;overflow:visible;vector-effect:none;fill:#cfe3cf;stroke-linecap:round;stroke-miterlimit:10;enable-background:accumulate;stop-color:#000000;stop-opacity:1;opacity:1"
     d="M 363.60938 428.12859 A 3 3 0 0 1 360.60938 425.12859 A 3 3 0 0 1 363.60938 422.12859 L 473.01123 422.12859 L 473.01123 428.12859 L 363.60938 428.12859 z M 1227.7383 428.12859 L 1227.7383 422.12859 L 1337.1401 422.12859 A 3 3 0 0 1 1340.1401 425.12859 A 3 3 0 0 1 1337.1401 428.12859 L 1227.7383 428.12859 z "
     transform="matrix(1, 0, 0, -1, 0, 850.32)" />
  <path
     id="path3"
     style="baseline-shift:baseline;display:inline;overflow:visible;vector-effect:none;fill:#cfe3cf;stroke-miterlimit:10;enable-background:accumulate;stop-color:#000000;stop-opacity:1;opacity:1"
     d="M 850.37109 270.87908 C 757.47768 270.87908 673.3833 268.66462 612.44971 265.0783 C 581.98291 263.28515 557.31825 261.15148 540.15674 258.76336 C 531.57598 257.5693 524.88921 256.32381 520.1499 254.96062 C 517.78025 254.27902 515.90635 253.59302 514.38135 252.70916 C 513.61885 252.26724 512.9265 251.77946 512.31299 251.06707 C 511.69948 250.35468 511.14844 249.29286 511.14844 248.09051 C 511.14844 248.08276 511.14839 248.07481 511.14844 248.06707 C 513.98951 248.19796 516.85091 248.32612 519.73096 248.45379 C 520.28113 248.69013 520.88996 248.93091 521.80811 249.195 C 526.02634 250.40832 532.55141 251.647 540.98438 252.82049 C 557.85033 255.16748 582.42383 257.30065 612.80127 259.08855 C 673.55616 262.66435 757.5731 264.87908 850.37109 264.87908 C 943.17299 264.87908 1027.1909 262.66435 1087.9468 259.08855 C 1118.3247 257.30065 1142.899 255.16748 1159.7651 252.82049 C 1168.1982 251.647 1174.7232 250.40832 1178.9414 249.195 C 1179.8597 248.93088 1180.4698 248.69016 1181.02 248.45379 C 1183.9 248.32612 1186.7601 248.19796 1189.6011 248.06707 C 1189.6011 248.07484 1189.6011 248.08273 1189.6011 248.09051 C 1189.6011 249.29286 1189.0515 250.35468 1188.438 251.06707 C 1187.8245 251.77946 1187.1321 252.26724 1186.3696 252.70916 C 1184.8446 253.59302 1182.9693 254.27902 1180.5996 254.96062 C 1175.8603 256.32381 1169.175 257.5693 1160.5942 258.76336 C 1143.4325 261.15148 1118.7656 263.28515 1088.2983 265.0783 C 1027.3638 268.66462 943.26841 270.87908 850.37109 270.87908 z "
     transform="matrix(1, 0, 0, -1, 0, 850.32)" />
  <path
     id="path5"
     style="baseline-shift:baseline;display:inline;overflow:visible;vector-effect:none;fill:#cfe3cf;stroke-miterlimit:10;enable-background:accumulate;stop-color:#000000;stop-opacity:1;opacity:1"
     d="M 511.67139 602.62371 C 511.3619 602.03423 511.14844 601.33961 511.14844 600.59051 C 511.14844 599.38761 511.70073 598.32587 512.31445 597.61395 C 512.92817 596.90203 513.61892 596.4148 514.38135 595.97332 C 515.90621 595.09036 517.78036 594.40142 520.1499 593.72039 C 524.88898 592.35834 531.57605 591.11546 540.15674 589.92205 C 557.31811 587.53525 581.98294 585.40296 612.44971 583.61004 C 673.38324 580.02422 757.47766 577.80926 850.37109 577.80926 C 943.26843 577.80926 1027.3638 580.02422 1088.2983 583.61004 C 1118.7656 585.40296 1143.4298 587.53525 1160.5913 589.92205 C 1169.172 591.11546 1175.8605 592.35834 1180.5996 593.72039 C 1182.9692 594.40142 1184.8448 595.09036 1186.3696 595.97332 C 1187.1321 596.4148 1187.8214 596.90203 1188.4351 597.61395 C 1189.0489 598.32587 1189.6011 599.38761 1189.6011 600.59051 C 1189.6011 601.33964 1189.3877 602.03421 1189.0781 602.62371 C 1185.236 602.44705 1181.3588 602.27298 1177.4458 602.10223 C 1177.9728 601.96646 1178.4711 601.83027 1178.9414 601.695 C 1180.3299 601.29562 1181.014 600.95086 1181.8521 600.59197 C 1181.0139 600.23341 1180.3297 599.88794 1178.9414 599.48895 C 1174.7229 598.27653 1168.1982 597.03633 1159.7651 595.86346 C 1142.8989 593.51772 1118.3247 591.38745 1087.9468 589.59979 C 1027.1908 586.02448 943.17297 583.80926 850.37109 583.80926 C 757.57312 583.80926 673.55621 586.02448 612.80127 589.59979 C 582.4238 591.38745 557.85048 593.51772 540.98438 595.86346 C 532.55134 597.03633 526.02657 598.27653 521.80811 599.48895 C 520.41987 599.88794 519.73707 600.23341 518.89893 600.59197 C 519.73702 600.95086 520.41961 601.29562 521.80811 601.695 C 522.2783 601.83024 522.77822 601.96649 523.30518 602.10223 C 519.39223 602.27298 515.51346 602.44706 511.67139 602.62371 z "
     transform="matrix(1, 0, 0, -1, 0, 850.32)" />
  <path
     id="path7"
     style="baseline-shift:baseline;display:inline;overflow:visible;vector-effect:none;fill:#cfe3cf;stroke-miterlimit:10;enable-background:accumulate;stop-color:#000000;stop-opacity:1;opacity:1"
     d="M 850.37109 671.10223 C 756.93957 671.10223 672.30054 643.76238 610.86914 599.36883 C 583.78422 579.79585 561.19724 556.87273 544.40771 531.51141 L 551.62061 531.51141 C 567.72142 554.89876 588.98465 576.15115 614.3833 594.50555 C 674.64038 638.05048 758.11121 665.10223 850.37109 665.10223 C 942.63491 665.10223 1026.1096 638.05048 1086.3677 594.50555 C 1111.7667 576.15115 1133.0296 554.89876 1149.1304 531.51141 L 1156.3418 531.51141 C 1139.5523 556.87273 1116.9657 579.79585 1089.8804 599.36883 C 1028.448 643.76238 943.8065 671.10223 850.37109 671.10223 z M 544.02393 319.33172 C 560.85245 293.73936 583.57698 270.61528 610.86914 250.89275 C 672.30053 206.4997 756.93957 179.16082 850.37109 179.16082 C 943.8065 179.16082 1028.448 206.4997 1089.8804 250.89275 C 1117.1729 270.61528 1139.8986 293.73936 1156.7271 319.33172 L 1149.5288 319.33172 C 1133.3809 295.71521 1111.9774 274.2625 1086.3677 255.75604 C 1026.1096 212.21159 942.63491 185.16082 850.37109 185.16082 C 758.11121 185.16082 674.64039 212.21159 614.3833 255.75604 C 588.77394 274.2625 567.36866 295.71521 551.2207 319.33172 L 544.02393 319.33172 z "
     transform="matrix(1, 0, 0, -1, 0, 850.32)" />
  <path
     style="baseline-shift:baseline;display:inline;overflow:visible;vector-effect:none;fill:#cfe3cf;stroke-miterlimit:10;enable-background:accumulate;stop-color:#000000;stop-opacity:1;opacity:1"
     d="m 850.37109,179.16016 c -134.82066,0 -256.9012,27.23939 -345.5332,71.48046 -88.632,44.24108 -144.22852,105.77047 -144.22852,174.48829 0,68.71972 55.59652,130.25062 144.22852,174.49218 88.632,44.24157 210.71254,71.48047 345.5332,71.48047 134.82456,0 256.90611,-27.2389 345.53911,-71.48047 88.6329,-44.24156 144.2304,-105.77246 144.2304,-174.49218 0,-68.71782 -55.5975,-130.24721 -144.2304,-174.48829 -88.633,-44.24107 -210.71455,-71.48046 -345.53911,-71.48046 z m 0,6 c 134.01529,0 255.31751,27.15122 342.85941,70.84765 87.5418,43.69643 140.9101,103.65141 140.9101,169.1211 0,65.47168 -53.3683,125.42613 -140.9101,169.12304 -87.5419,43.69691 -208.84412,70.84961 -342.85941,70.84961 -134.01137,0 -255.31266,-27.1527 -342.85351,-70.84961 -87.54085,-43.6969 -140.90821,-103.65136 -140.90821,-169.12304 0,-65.46969 53.36735,-125.42467 140.90821,-169.1211 87.54085,-43.69642 208.84214,-70.84765 342.85351,-70.84765 z"
     id="path8"
     transform="matrix(1, 0, 0, -1, 0, 850.32)" />
  <path
     id="path9"
     style="baseline-shift:baseline;display:inline;overflow:visible;vector-effect:none;fill:#cfe3cf;stroke-miterlimit:10;enable-background:accumulate;stop-color:#000000;stop-opacity:1;opacity:1"
     d="M 850.37109 671.10223 C 800.81832 671.10223 756.08548 643.24993 723.92139 598.69354 C 709.8601 579.21466 698.16706 556.53038 689.45801 531.51141 L 695.83008 531.51141 C 704.28142 555.2359 715.46267 576.72756 728.78467 595.1823 C 760.10105 638.56439 803.06449 665.10223 850.37109 665.10223 C 897.68169 665.10223 940.64604 638.56438 971.96338 595.1823 C 985.28577 576.72756 996.46775 555.2359 1004.9194 531.51141 L 1011.293 531.51141 C 1002.584 556.53038 990.88984 579.21466 976.82813 598.69354 C 944.66304 643.24994 899.92768 671.10223 850.37109 671.10223 z M 689.25586 319.33172 C 697.98576 294.08279 709.75104 271.19778 723.92139 251.56805 C 756.08548 207.01216 800.81832 179.16082 850.37109 179.16082 C 899.92768 179.16082 944.66305 207.01214 976.82813 251.56805 C 990.99891 271.19779 1002.7653 294.0828 1011.4951 319.33172 L 1005.126 319.33172 C 996.65023 295.37695 985.39472 273.68621 971.96338 255.08074 C 940.64604 211.69914 897.68169 185.16082 850.37109 185.16082 C 803.06449 185.16082 760.10105 211.69913 728.78467 255.08074 C 715.35372 273.68621 704.09894 295.37696 695.62354 319.33172 L 689.25586 319.33172 z "
     transform="matrix(1, 0, 0, -1, 0, 850.32)" />
  <path
     id="path10"
     style="baseline-shift:baseline;display:inline;overflow:visible;vector-effect:none;fill:#cfe3cf;stroke-linecap:round;stroke-miterlimit:10;enable-background:accumulate;stop-color:#000000;stop-opacity:1;opacity:1"
     d="M 850.37109 671.10223 A 3 3 0 0 1 847.37109 668.10223 L 847.37256 531.51141 L 853.37256 531.51141 L 853.37109 668.10223 A 3 3 0 0 1 850.37109 671.10223 z M 847.37695 319.33172 L 847.37842 182.16082 A 3 3 0 0 1 850.37842 179.16082 A 3 3 0 0 1 853.37842 182.16082 L 853.37695 319.33172 L 847.37695 319.33172 z "
     transform="matrix(1, 0, 0, -1, 0, 850.32)" />
  <path
     fill-rule="nonzero"
     fill="rgb(61.999512%, 78.399658%, 62.399292%)"
     fill-opacity="1"
     d="M 494.128906 497.648438 C 495.929688 480.75 497.21875 466.96875 498.011719 456.300781 C 499.519531 436.820312 500.660156 417.46875 501.410156 398.25 C 502.171875 379.019531 502.550781 363.289062 502.550781 351.039062 C 512.28125 351.191406 520.898438 351.261719 528.410156 351.261719 C 533.488281 351.261719 540.789062 351.191406 550.300781 351.039062 L 547.710938 389.921875 L 544.480469 450.710938 L 544.050781 465.640625 C 556.371094 465.859375 564.390625 465.96875 568.121094 465.96875 C 586.949219 465.96875 601.210938 465.710938 610.878906 465.210938 L 608.511719 497.648438 C 589.679688 497.511719 571.75 497.429688 554.710938 497.429688 C 531.648438 497.429688 511.460938 497.511719 494.128906 497.648438 Z M 644.019531 497.648438 C 645.808594 479.179688 647.121094 463.710938 647.949219 451.25 C 648.769531 438.789062 649.601562 422.230469 650.421875 401.578125 C 651.25 380.921875 651.660156 367.230469 651.660156 360.5 L 651.558594 351.039062 C 668.449219 351.191406 688.890625 351.261719 712.871094 351.261719 C 734.988281 351.261719 754.5 351.191406 771.398438 351.039062 L 771.179688 354.578125 C 771.109375 355.429688 770.929688 358.539062 770.640625 363.890625 L 770 375.558594 C 769.859375 378.058594 769.789062 380.589844 769.789062 383.160156 C 755.96875 382.589844 744.371094 382.300781 734.988281 382.300781 C 724.679688 382.300781 717.710938 382.320312 714.101562 382.351562 C 710.480469 382.390625 704.839844 382.550781 697.179688 382.839844 L 695.878906 407.539062 C 704.328125 407.75 714.179688 407.859375 725.421875 407.859375 C 729.429688 407.859375 740.101562 407.609375 757.429688 407.109375 C 756.71875 416.269531 756.039062 427.191406 755.398438 439.871094 C 743.019531 439.71875 733.5 439.648438 726.839844 439.648438 C 716.96875 439.648438 705.910156 439.898438 693.671875 440.398438 L 692.398438 466.5 L 704.738281 466.5 C 708.390625 466.5 715.941406 466.390625 727.390625 466.179688 L 749.609375 465.640625 C 752.898438 465.570312 758.410156 465.28125 766.128906 464.78125 C 765.269531 475.378906 764.558594 486.339844 763.988281 497.648438 C 746.519531 497.511719 727.359375 497.429688 706.53125 497.429688 L 659.269531 497.539062 Z M 644.019531 497.648438 "
     id="path12" />
  <path
     fill-rule="nonzero"
     fill="rgb(61.999512%, 78.399658%, 62.399292%)"
     fill-opacity="1"
     d="M 838.039062 497.648438 L 834.390625 477.890625 C 833.53125 473.230469 832.199219 466.71875 830.410156 458.339844 L 812.890625 378.109375 L 806.550781 351.039062 C 815.578125 351.191406 822.890625 351.261719 828.480469 351.261719 C 834.78125 351.261719 842.089844 351.191406 850.398438 351.039062 C 852.339844 362.71875 853.878906 371.269531 855.03125 376.710938 L 864.058594 420 C 865.921875 429.308594 868 440.648438 870.289062 454.039062 L 873.828125 439.011719 L 886.578125 389.390625 L 895.371094 351.039062 C 905.179688 351.191406 913.480469 351.261719 920.289062 351.261719 C 927.660156 351.261719 935.929688 351.191406 945.101562 351.039062 L 951.878906 396.261719 L 961.261719 453.828125 L 965.449219 438.039062 C 966.230469 435.320312 967.058594 432.558594 967.921875 429.769531 C 968.769531 426.980469 970.558594 421.429688 973.28125 413.121094 L 986.378906 371.878906 L 992.488281 351.039062 C 1001.148438 351.121094 1008.300781 351.148438 1013.960938 351.148438 C 1020.320312 351.148438 1027.441406 351.121094 1035.308594 351.039062 L 993.671875 475.851562 L 987.019531 497.648438 C 976.28125 497.511719 966.898438 497.429688 958.878906 497.429688 C 950.429688 497.429688 941.078125 497.511719 930.839844 497.648438 L 928.371094 482.929688 L 918.941406 431.699219 C 918.441406 428.621094 917.988281 425.460938 917.601562 422.199219 C 917.210938 418.941406 916.648438 413.871094 915.941406 407 L 912.179688 423.648438 C 911.238281 427.371094 910.28125 431.128906 909.269531 434.929688 L 891.96875 497.648438 C 881.160156 497.511719 872.171875 497.429688 865.011719 497.429688 C 857.421875 497.429688 848.429688 497.511719 838.039062 497.648438 Z M 1028.820312 497.648438 L 1037.738281 482.179688 L 1093.289062 377.570312 L 1099.210938 365.871094 C 1100.921875 362.429688 1103.320312 357.488281 1106.398438 351.039062 C 1119.011719 351.191406 1128.210938 351.261719 1134 351.261719 C 1144.101562 351.261719 1153.441406 351.191406 1162.03125 351.039062 L 1177.699219 395.828125 L 1209.578125 481.96875 L 1215.808594 497.648438 C 1203.410156 497.511719 1195.878906 497.429688 1193.230469 497.429688 C 1187.210938 497.429688 1178.359375 497.511719 1166.671875 497.648438 C 1163.53125 485.828125 1158.988281 471.941406 1153.058594 455.980469 L 1098.988281 455.980469 C 1092.769531 468.578125 1086.328125 482.46875 1079.671875 497.648438 C 1066.339844 497.511719 1058.171875 497.429688 1055.160156 497.429688 C 1049.710938 497.429688 1040.929688 497.511719 1028.820312 497.648438 Z M 1111.96875 424.71875 L 1145.339844 424.71875 C 1137.050781 399.488281 1132.511719 385.589844 1131.71875 383.019531 C 1127 393.519531 1122.988281 402.140625 1119.699219 408.859375 Z M 1111.96875 424.71875 "
     id="path13" />
</svg>
